Coordinates
version=1
nRows=17
nColumns=38
inDegrees=no

Units are S.I. units (second, meters, Newtons, ...)
If the header above contains a line with 'inDegrees', this indicates whether rotational values are in degrees (yes) or radians (no).

endheader
time	pelvis_tilt	pelvis_list	pelvis_rotation	pelvis_tx	pelvis_ty	pelvis_tz	hip_flexion_r	hip_adduction_r	hip_rotation_r	knee_angle_r	ankle_angle_r	subtalar_angle_r	mtp_angle_r	hip_flexion_l	hip_adduction_l	hip_rotation_l	knee_angle_l	ankle_angle_l	subtalar_angle_l	mtp_angle_l	lumbar_extension	lumbar_bending	lumbar_rotation	arm_flex_r	arm_add_r	arm_rot_r	elbow_flex_r	pro_sup_r	wrist_flex_r	wrist_dev_r	arm_flex_l	arm_add_l	arm_rot_l	elbow_flex_l	pro_sup_l	wrist_flex_l	wrist_dev_l
2.48501	0.465129	0.0406047	-3.05219	-0.0917386	0.423309	0.0324688	2.08225	-0.44817	0.123613	2.09327	0.489928	0	0	2.08708	-0.164737	0.0613183	2.09348	0.489222	0	0	-0.176384	0.0980259	-0.0182189	1.55078	-0.41692	0.910389	1.68306	1.39209	0	0	1.56361	-0.171366	0.918187	1.53848	1.52182	0	0
2.49499	0.463628	0.040597	-3.05165	-0.0921836	0.423418	0.0323203	2.08031	-0.448488	0.123355	2.09328	0.490065	0	0	2.08547	-0.164854	0.0617437	2.09348	0.489032	0	0	-0.177879	0.0979943	-0.0192641	1.55	-0.417197	0.911022	1.68305	1.39072	0	0	1.56339	-0.171172	0.918656	1.53787	1.52159	0	0
2.50497	0.462479	0.0405885	-3.05115	-0.0926182	0.423564	0.0321645	2.07877	-0.448711	0.123027	2.0933	0.490193	0	0	2.08425	-0.165057	0.0620885	2.09348	0.488877	0	0	-0.179061	0.0978939	-0.0202201	1.5492	-0.417409	0.91157	1.6828	1.38929	0	0	1.56316	-0.170846	0.918993	1.53701	1.52137	0	0
2.51495	0.461708	0.0405807	-3.05069	-0.0930414	0.423749	0.0320029	2.07765	-0.44882	0.122621	2.09331	0.4903	0	0	2.08345	-0.165368	0.062344	2.09347	0.488774	0	0	-0.179902	0.0977302	-0.0210742	1.54838	-0.417538	0.91201	1.68232	1.38787	0	0	1.56293	-0.170417	0.919195	1.53591	1.52116	0	0
2.52493	0.461188	0.0405713	-3.05032	-0.0934532	0.423974	0.0318377	2.07679	-0.448803	0.122129	2.09333	0.490391	0	0	2.0829	-0.165813	0.0625268	2.09347	0.488725	0	0	-0.180539	0.0975124	-0.0218098	1.54755	-0.417601	0.912396	1.68167	1.38653	0	0	1.56269	-0.169949	0.919334	1.53468	1.52097	0	0
2.53491	0.460832	0.0405515	-3.05004	-0.0938548	0.424243	0.0316713	2.07604	-0.448644	0.121562	2.09334	0.490466	0	0	2.08247	-0.16641	0.0626434	2.09346	0.488727	0	0	-0.181067	0.0972426	-0.0224211	1.54671	-0.41761	0.912781	1.68094	1.38539	0	0	1.56244	-0.169511	0.919479	1.53342	1.52079	0	0
2.54489	0.460585	0.0405134	-3.04987	-0.0942479	0.424562	0.0315069	2.07532	-0.44832	0.120929	2.09335	0.490526	0	0	2.08209	-0.167167	0.0627054	2.09345	0.488764	0	0	-0.181544	0.0969207	-0.0229039	1.54585	-0.417584	0.913227	1.68019	1.38451	0	0	1.56219	-0.169174	0.919707	1.53225	1.52065	0	0
2.55487	0.460386	0.0404546	-3.04982	-0.0946344	0.424933	0.0313475	2.07455	-0.447815	0.120233	2.09336	0.490575	0	0	2.08166	-0.168084	0.0627378	2.09344	0.488819	0	0	-0.182034	0.0965537	-0.0232563	1.54497	-0.417544	0.913814	1.67952	1.38401	0	0	1.56192	-0.169012	0.920107	1.53129	1.52055	0	0
2.56485	0.460167	0.0403514	-3.04987	-0.0950161	0.425364	0.0311966	2.07366	-0.447157	0.119519	2.09337	0.490627	0	0	2.08108	-0.169127	0.0627094	2.09343	0.488888	0	0	-0.182612	0.0961327	-0.0235054	1.54409	-0.417489	0.914517	1.67894	1.3839	0	0	1.56165	-0.169029	0.920671	1.53055	1.52049	0	0
2.57483	0.45982	0.0401823	-3.05	-0.0953945	0.425856	0.0310572	2.07253	-0.446383	0.118831	2.09338	0.490701	0	0	2.08021	-0.170256	0.0625956	2.09342	0.488973	0	0	-0.183395	0.095653	-0.0236791	1.54318	-0.417426	0.915337	1.67845	1.38412	0	0	1.56137	-0.169222	0.921409	1.53003	1.52045	0	0
2.58481	0.459217	0.0399322	-3.05018	-0.0957703	0.426415	0.0309321	2.071	-0.445533	0.118198	2.09338	0.490817	0	0	2.0789	-0.171435	0.062386	2.09341	0.489077	0	0	-0.18452	0.0951154	-0.0237975	1.54227	-0.417376	0.916295	1.67808	1.38465	0	0	1.56109	-0.169589	0.922345	1.52973	1.52042	0	0
2.59479	0.458539	0.0395837	-3.0504	-0.0961437	0.427043	0.0308238	2.06935	-0.444617	0.117661	2.09338	0.490963	0	0	2.07734	-0.172617	0.062032	2.0934	0.489198	0	0	-0.185787	0.0945018	-0.0238878	1.54134	-0.417325	0.917315	1.67779	1.38545	0	0	1.56079	-0.17009	0.923414	1.52959	1.52039	0	0
2.60477	0.457796	0.0391339	-3.05063	-0.0965141	0.427741	0.0307339	2.06758	-0.443653	0.117235	2.09339	0.491138	0	0	2.07556	-0.173774	0.0615353	2.09339	0.489325	0	0	-0.187185	0.0938135	-0.023957	1.5404	-0.417305	0.918418	1.67763	1.38649	0	0	1.56049	-0.170718	0.924625	1.52963	1.52038	0	0
2.61475	0.456899	0.0385901	-3.05088	-0.0968803	0.42851	0.0306635	2.06558	-0.442671	0.116912	2.09339	0.491352	0	0	2.07344	-0.174883	0.060918	2.09337	0.489453	0	0	-0.188808	0.0930664	-0.0240038	1.53944	-0.417354	0.919646	1.67762	1.38775	0	0	1.56018	-0.171466	0.926001	1.52986	1.52037	0	0
2.62473	0.455889	0.0379623	-3.05114	-0.0972409	0.429352	0.030613	2.06341	-0.441697	0.116678	2.09338	0.491601	0	0	2.07104	-0.175921	0.0601826	2.09336	0.489585	0	0	-0.190614	0.0922725	-0.0240307	1.53847	-0.417484	0.920982	1.67775	1.38918	0	0	1.55986	-0.172299	0.927509	1.53022	1.52038	0	0
2.63471	0.454783	0.0372667	-3.0514	-0.0975938	0.430266	0.0305824	2.06107	-0.440759	0.116508	2.09338	0.491886	0	0	2.06839	-0.176873	0.0593417	2.09334	0.489724	0	0	-0.192577	0.0914492	-0.0240352	1.53749	-0.417709	0.922419	1.67797	1.39075	0	0	1.55953	-0.173186	0.92912	1.53065	1.52039	0	0
2.64469	0.453754	0.0365167	-3.05165	-0.0979369	0.431252	0.0305712	2.05881	-0.439868	0.116376	2.09337	0.492193	0	0	2.0657	-0.177727	0.0583794	2.09332	0.489876	0	0	-0.194506	0.0906026	-0.0240203	1.53649	-0.418008	0.923883	1.67819	1.39239	0	0	1.55919	-0.174068	0.930747	1.53103	1.5204	0	0
